<mxfile host="app.diagrams.net" agent="Mozilla/5.0 (Windows NT 10.0; Win64; x64; rv:137.0) Gecko/20100101 Firefox/137.0" version="26.2.3" pages="7">
  <diagram id="w_kx2FqUCntdmE35-6Ks" name="Page-1">
    <mxGraphModel dx="1050" dy="542" grid="1" gridSize="10" guides="1" tooltips="1" connect="1" arrows="1" fold="1" page="1" pageScale="1" pageWidth="827" pageHeight="1169" math="0" shadow="0">
      <root>
        <mxCell id="0" />
        <mxCell id="1" parent="0" />
        <mxCell id="FZ1xehRNkNWjk5WlEBEU-1" value="" style="ellipse;whiteSpace=wrap;html=1;rounded=0;shadow=0;comic=0;labelBackgroundColor=none;strokeWidth=1;fillColor=#000000;fontFamily=Verdana;fontSize=12;align=center;" parent="1" vertex="1">
          <mxGeometry x="70" y="40" width="40" height="40" as="geometry" />
        </mxCell>
        <mxCell id="FZ1xehRNkNWjk5WlEBEU-4" value="Aktywność początkowa" style="text;html=1;align=center;verticalAlign=middle;whiteSpace=wrap;rounded=0;" parent="1" vertex="1">
          <mxGeometry x="110" y="45" width="130" height="30" as="geometry" />
        </mxCell>
        <mxCell id="4lk_tip4tuXyMQHW5981-1" value="" style="shape=mxgraph.bpmn.shape;html=1;verticalLabelPosition=bottom;labelBackgroundColor=#ffffff;verticalAlign=top;perimeter=ellipsePerimeter;outline=end;symbol=terminate;rounded=0;shadow=0;comic=0;strokeWidth=1;fontFamily=Verdana;fontSize=12;align=center;" parent="1" vertex="1">
          <mxGeometry x="70" y="80" width="40" height="40" as="geometry" />
        </mxCell>
        <mxCell id="4lk_tip4tuXyMQHW5981-2" value="Aktywność końcowa" style="text;html=1;align=center;verticalAlign=middle;whiteSpace=wrap;rounded=0;" parent="1" vertex="1">
          <mxGeometry x="110" y="85" width="130" height="30" as="geometry" />
        </mxCell>
        <mxCell id="XvQLIIZSQUq92FYBTIFU-1" style="edgeStyle=orthogonalEdgeStyle;rounded=0;html=1;labelBackgroundColor=none;startArrow=none;startFill=0;startSize=5;endArrow=classicThin;endFill=1;endSize=5;jettySize=auto;orthogonalLoop=1;strokeWidth=1;fontFamily=Verdana;fontSize=12" parent="1" edge="1">
          <mxGeometry relative="1" as="geometry">
            <Array as="points">
              <mxPoint x="125" y="140" />
              <mxPoint x="125" y="140" />
            </Array>
            <mxPoint x="45" y="140" as="sourcePoint" />
            <mxPoint x="135" y="140" as="targetPoint" />
          </mxGeometry>
        </mxCell>
        <mxCell id="XvQLIIZSQUq92FYBTIFU-2" value="Przejście mędzy aktywnościami" style="text;html=1;align=center;verticalAlign=middle;whiteSpace=wrap;rounded=0;" parent="1" vertex="1">
          <mxGeometry x="130" y="120" width="120" height="30" as="geometry" />
        </mxCell>
        <mxCell id="U39J2yKCnvJBjRCNDWG9-1" value="Action" style="rounded=1;whiteSpace=wrap;html=1;shadow=0;comic=0;labelBackgroundColor=none;strokeWidth=1;fontFamily=Verdana;fontSize=12;align=center;arcSize=50;" parent="1" vertex="1">
          <mxGeometry x="50" y="160" width="100" height="30" as="geometry" />
        </mxCell>
        <mxCell id="U39J2yKCnvJBjRCNDWG9-2" value="Aktywność" style="text;html=1;align=center;verticalAlign=middle;whiteSpace=wrap;rounded=0;" parent="1" vertex="1">
          <mxGeometry x="160" y="160" width="80" height="30" as="geometry" />
        </mxCell>
        <mxCell id="mOlvV827mGA5ZxGMZxDe-1" value="" style="rhombus;whiteSpace=wrap;html=1;" parent="1" vertex="1">
          <mxGeometry x="60" y="200" width="50" height="50" as="geometry" />
        </mxCell>
        <mxCell id="mOlvV827mGA5ZxGMZxDe-2" value="Decyzja" style="text;html=1;align=center;verticalAlign=middle;whiteSpace=wrap;rounded=0;" parent="1" vertex="1">
          <mxGeometry x="130" y="210" width="60" height="30" as="geometry" />
        </mxCell>
        <mxCell id="gX18eS5_Al3H6jgC21_I-1" value="" style="whiteSpace=wrap;html=1;rounded=0;shadow=0;comic=0;labelBackgroundColor=none;strokeWidth=1;fillColor=#000000;fontFamily=Verdana;fontSize=12;align=center;rotation=90;" parent="1" vertex="1">
          <mxGeometry x="70" y="310" width="77" height="10" as="geometry" />
        </mxCell>
        <mxCell id="gX18eS5_Al3H6jgC21_I-2" value="" style="endArrow=classic;html=1;rounded=0;entryX=0.25;entryY=1;entryDx=0;entryDy=0;" parent="1" target="gX18eS5_Al3H6jgC21_I-1" edge="1">
          <mxGeometry width="50" height="50" relative="1" as="geometry">
            <mxPoint x="40" y="296" as="sourcePoint" />
            <mxPoint x="470" y="300" as="targetPoint" />
          </mxGeometry>
        </mxCell>
        <mxCell id="gX18eS5_Al3H6jgC21_I-3" value="" style="endArrow=classic;html=1;rounded=0;entryX=0.75;entryY=1;entryDx=0;entryDy=0;" parent="1" target="gX18eS5_Al3H6jgC21_I-1" edge="1">
          <mxGeometry width="50" height="50" relative="1" as="geometry">
            <mxPoint x="40" y="334" as="sourcePoint" />
            <mxPoint x="90" y="330" as="targetPoint" />
          </mxGeometry>
        </mxCell>
        <mxCell id="gX18eS5_Al3H6jgC21_I-4" value="" style="endArrow=classic;html=1;rounded=0;exitX=0.5;exitY=0;exitDx=0;exitDy=0;" parent="1" source="gX18eS5_Al3H6jgC21_I-1" target="gX18eS5_Al3H6jgC21_I-5" edge="1">
          <mxGeometry width="50" height="50" relative="1" as="geometry">
            <mxPoint x="420" y="350" as="sourcePoint" />
            <mxPoint x="170" y="315" as="targetPoint" />
          </mxGeometry>
        </mxCell>
        <mxCell id="gX18eS5_Al3H6jgC21_I-5" value="Złączenie" style="text;html=1;align=center;verticalAlign=middle;whiteSpace=wrap;rounded=0;" parent="1" vertex="1">
          <mxGeometry x="140" y="300" width="90" height="30" as="geometry" />
        </mxCell>
        <mxCell id="Yi0ofjkJv2FGq6178irO-1" value="" style="whiteSpace=wrap;html=1;rounded=0;shadow=0;comic=0;labelBackgroundColor=none;strokeWidth=1;fillColor=#000000;fontFamily=Verdana;fontSize=12;align=center;rotation=90;" parent="1" vertex="1">
          <mxGeometry x="70" y="400" width="77" height="10" as="geometry" />
        </mxCell>
        <mxCell id="Yi0ofjkJv2FGq6178irO-3" value="" style="endArrow=classic;html=1;rounded=0;entryX=0.5;entryY=1;entryDx=0;entryDy=0;" parent="1" target="Yi0ofjkJv2FGq6178irO-1" edge="1">
          <mxGeometry width="50" height="50" relative="1" as="geometry">
            <mxPoint x="40" y="405" as="sourcePoint" />
            <mxPoint x="470" y="300" as="targetPoint" />
          </mxGeometry>
        </mxCell>
        <mxCell id="Yi0ofjkJv2FGq6178irO-4" value="" style="endArrow=classic;html=1;rounded=0;exitX=0.25;exitY=0;exitDx=0;exitDy=0;" parent="1" source="Yi0ofjkJv2FGq6178irO-1" edge="1">
          <mxGeometry width="50" height="50" relative="1" as="geometry">
            <mxPoint x="200" y="420" as="sourcePoint" />
            <mxPoint x="150" y="386" as="targetPoint" />
          </mxGeometry>
        </mxCell>
        <mxCell id="Yi0ofjkJv2FGq6178irO-5" value="" style="endArrow=classic;html=1;rounded=0;exitX=0.75;exitY=0;exitDx=0;exitDy=0;" parent="1" source="Yi0ofjkJv2FGq6178irO-1" edge="1">
          <mxGeometry width="50" height="50" relative="1" as="geometry">
            <mxPoint x="420" y="350" as="sourcePoint" />
            <mxPoint x="150" y="424" as="targetPoint" />
          </mxGeometry>
        </mxCell>
        <mxCell id="Yi0ofjkJv2FGq6178irO-6" value="Rozdzielenie" style="text;html=1;align=center;verticalAlign=middle;whiteSpace=wrap;rounded=0;" parent="1" vertex="1">
          <mxGeometry x="150" y="390" width="110" height="30" as="geometry" />
        </mxCell>
        <mxCell id="RwnUWSRpv2X-GetTT3OU-1" value="&lt;font style=&quot;font-size: 20px;&quot;&gt;instrukcja for()&lt;/font&gt;" style="text;html=1;align=center;verticalAlign=middle;whiteSpace=wrap;rounded=0;" vertex="1" parent="1">
          <mxGeometry x="40" y="520" width="140" height="30" as="geometry" />
        </mxCell>
        <mxCell id="RwnUWSRpv2X-GetTT3OU-2" value="" style="ellipse;whiteSpace=wrap;html=1;rounded=0;shadow=0;comic=0;labelBackgroundColor=none;strokeWidth=1;fillColor=#000000;fontFamily=Verdana;fontSize=12;align=center;" vertex="1" parent="1">
          <mxGeometry x="117" y="560" width="40" height="40" as="geometry" />
        </mxCell>
        <mxCell id="RwnUWSRpv2X-GetTT3OU-3" style="edgeStyle=orthogonalEdgeStyle;rounded=0;html=1;labelBackgroundColor=none;startArrow=none;startFill=0;startSize=5;endArrow=classicThin;endFill=1;endSize=5;jettySize=auto;orthogonalLoop=1;strokeWidth=1;fontFamily=Verdana;fontSize=12;exitX=0.5;exitY=1;exitDx=0;exitDy=0;" edge="1" parent="1" source="RwnUWSRpv2X-GetTT3OU-2">
          <mxGeometry relative="1" as="geometry">
            <Array as="points">
              <mxPoint x="137" y="630" />
            </Array>
            <mxPoint x="130" y="630" as="sourcePoint" />
            <mxPoint x="137" y="640" as="targetPoint" />
          </mxGeometry>
        </mxCell>
        <mxCell id="RwnUWSRpv2X-GetTT3OU-4" value="Sprawdzanie warunków" style="rounded=1;whiteSpace=wrap;html=1;shadow=0;comic=0;labelBackgroundColor=none;strokeWidth=1;fontFamily=Verdana;fontSize=12;align=center;arcSize=50;" vertex="1" parent="1">
          <mxGeometry x="87" y="700" width="100" height="40" as="geometry" />
        </mxCell>
        <mxCell id="tK-nnFhGz2nqMQFVTAQg-3" value="" style="endArrow=classic;html=1;rounded=0;exitX=0.5;exitY=1;exitDx=0;exitDy=0;entryX=0.5;entryY=0;entryDx=0;entryDy=0;" edge="1" parent="1" source="RwnUWSRpv2X-GetTT3OU-4">
          <mxGeometry width="50" height="50" relative="1" as="geometry">
            <mxPoint x="230" y="770" as="sourcePoint" />
            <mxPoint x="137" y="780" as="targetPoint" />
          </mxGeometry>
        </mxCell>
        <mxCell id="tK-nnFhGz2nqMQFVTAQg-5" style="edgeStyle=orthogonalEdgeStyle;rounded=0;orthogonalLoop=1;jettySize=auto;html=1;exitX=0.5;exitY=1;exitDx=0;exitDy=0;" edge="1" parent="1" source="tK-nnFhGz2nqMQFVTAQg-4">
          <mxGeometry relative="1" as="geometry">
            <mxPoint x="137" y="900" as="targetPoint" />
          </mxGeometry>
        </mxCell>
        <mxCell id="tK-nnFhGz2nqMQFVTAQg-7" style="edgeStyle=orthogonalEdgeStyle;rounded=0;orthogonalLoop=1;jettySize=auto;html=1;exitX=1;exitY=0.5;exitDx=0;exitDy=0;" edge="1" parent="1" source="tK-nnFhGz2nqMQFVTAQg-4">
          <mxGeometry relative="1" as="geometry">
            <mxPoint x="240" y="820" as="targetPoint" />
          </mxGeometry>
        </mxCell>
        <mxCell id="tK-nnFhGz2nqMQFVTAQg-4" value="" style="rhombus;whiteSpace=wrap;html=1;" vertex="1" parent="1">
          <mxGeometry x="97" y="780" width="80" height="80" as="geometry" />
        </mxCell>
        <mxCell id="tK-nnFhGz2nqMQFVTAQg-6" value="" style="shape=mxgraph.bpmn.shape;html=1;verticalLabelPosition=bottom;labelBackgroundColor=#ffffff;verticalAlign=top;perimeter=ellipsePerimeter;outline=end;symbol=terminate;rounded=0;shadow=0;comic=0;strokeWidth=1;fontFamily=Verdana;fontSize=12;align=center;" vertex="1" parent="1">
          <mxGeometry x="117" y="900" width="40" height="40" as="geometry" />
        </mxCell>
        <mxCell id="tK-nnFhGz2nqMQFVTAQg-9" value="&lt;font style=&quot;font-size: 14px;&quot;&gt;&lt;b&gt;F&lt;/b&gt;&lt;/font&gt;" style="text;html=1;align=center;verticalAlign=middle;whiteSpace=wrap;rounded=0;" vertex="1" parent="1">
          <mxGeometry x="110" y="860" width="30" height="30" as="geometry" />
        </mxCell>
        <mxCell id="tK-nnFhGz2nqMQFVTAQg-11" value="&lt;b&gt;&lt;font style=&quot;font-size: 14px;&quot;&gt;T&lt;/font&gt;&lt;/b&gt;" style="text;html=1;align=center;verticalAlign=middle;whiteSpace=wrap;rounded=0;" vertex="1" parent="1">
          <mxGeometry x="187" y="790" width="30" height="30" as="geometry" />
        </mxCell>
        <mxCell id="9emASSuMV7e-R973T1c0-4" style="edgeStyle=orthogonalEdgeStyle;rounded=0;orthogonalLoop=1;jettySize=auto;html=1;exitX=1;exitY=0.5;exitDx=0;exitDy=0;" edge="1" parent="1" source="tK-nnFhGz2nqMQFVTAQg-12" target="9emASSuMV7e-R973T1c0-3">
          <mxGeometry relative="1" as="geometry" />
        </mxCell>
        <mxCell id="tK-nnFhGz2nqMQFVTAQg-12" value="instrukcja2" style="rounded=1;whiteSpace=wrap;html=1;shadow=0;comic=0;labelBackgroundColor=none;strokeWidth=1;fontFamily=Verdana;fontSize=12;align=center;arcSize=50;" vertex="1" parent="1">
          <mxGeometry x="380" y="805" width="90" height="30" as="geometry" />
        </mxCell>
        <mxCell id="tK-nnFhGz2nqMQFVTAQg-14" value="" style="endArrow=classic;html=1;rounded=0;" edge="1" parent="1">
          <mxGeometry width="50" height="50" relative="1" as="geometry">
            <mxPoint x="330" y="820" as="sourcePoint" />
            <mxPoint x="380" y="820" as="targetPoint" />
          </mxGeometry>
        </mxCell>
        <mxCell id="tK-nnFhGz2nqMQFVTAQg-15" value="instrukcja1" style="rounded=1;whiteSpace=wrap;html=1;shadow=0;comic=0;labelBackgroundColor=none;strokeWidth=1;fontFamily=Verdana;fontSize=12;align=center;arcSize=50;" vertex="1" parent="1">
          <mxGeometry x="240" y="805" width="90" height="30" as="geometry" />
        </mxCell>
        <mxCell id="tK-nnFhGz2nqMQFVTAQg-16" value="" style="endArrow=classic;html=1;rounded=0;entryX=1;entryY=0.5;entryDx=0;entryDy=0;exitX=1;exitY=0.5;exitDx=0;exitDy=0;" edge="1" parent="1" source="9emASSuMV7e-R973T1c0-3" target="RwnUWSRpv2X-GetTT3OU-4">
          <mxGeometry width="50" height="50" relative="1" as="geometry">
            <mxPoint x="600" y="720" as="sourcePoint" />
            <mxPoint x="520" y="770" as="targetPoint" />
            <Array as="points">
              <mxPoint x="640" y="820" />
              <mxPoint x="640" y="720" />
            </Array>
          </mxGeometry>
        </mxCell>
        <mxCell id="9emASSuMV7e-R973T1c0-2" style="edgeStyle=orthogonalEdgeStyle;rounded=0;orthogonalLoop=1;jettySize=auto;html=1;exitX=0.5;exitY=1;exitDx=0;exitDy=0;entryX=0.5;entryY=0;entryDx=0;entryDy=0;" edge="1" parent="1" source="9emASSuMV7e-R973T1c0-1" target="RwnUWSRpv2X-GetTT3OU-4">
          <mxGeometry relative="1" as="geometry" />
        </mxCell>
        <mxCell id="9emASSuMV7e-R973T1c0-1" value="Inicjalizacja zmiennej" style="rounded=1;whiteSpace=wrap;html=1;shadow=0;comic=0;labelBackgroundColor=none;strokeWidth=1;fontFamily=Verdana;fontSize=12;align=center;arcSize=50;" vertex="1" parent="1">
          <mxGeometry x="87" y="640" width="100" height="40" as="geometry" />
        </mxCell>
        <mxCell id="9emASSuMV7e-R973T1c0-3" value="&lt;span style=&quot;white-space: pre-wrap;&quot; data-src-align=&quot;0:9&quot; class=&quot;EzKURWReUAB5oZgtQNkl&quot;&gt;Zmiana&lt;/span&gt;&lt;span style=&quot;white-space: pre-wrap;&quot;&gt; &lt;/span&gt;&lt;span style=&quot;white-space: pre-wrap;&quot; data-src-align=&quot;10:10&quot; class=&quot;EzKURWReUAB5oZgtQNkl&quot;&gt;zmiennej&lt;/span&gt;" style="rounded=1;whiteSpace=wrap;html=1;shadow=0;comic=0;labelBackgroundColor=none;strokeWidth=1;fontFamily=Verdana;fontSize=12;align=center;arcSize=50;" vertex="1" parent="1">
          <mxGeometry x="520" y="800" width="100" height="40" as="geometry" />
        </mxCell>
      </root>
    </mxGraphModel>
  </diagram>
  <diagram id="jdPxQLxnuPbwRJs6Wqp7" name="Page-2">
    <mxGraphModel dx="1050" dy="542" grid="1" gridSize="10" guides="1" tooltips="1" connect="1" arrows="1" fold="1" page="1" pageScale="1" pageWidth="827" pageHeight="1169" math="0" shadow="0">
      <root>
        <mxCell id="0" />
        <mxCell id="1" parent="0" />
        <mxCell id="TXU6eanO1Jubr0v6Hg8s-1" value="instrukcja warunek if-else" style="text;whiteSpace=wrap;fontSize=20;" vertex="1" parent="1">
          <mxGeometry x="40" y="40" width="240" height="40" as="geometry" />
        </mxCell>
        <mxCell id="FbyyjFnOJV8B7wnbFXzh-1" value="" style="ellipse;whiteSpace=wrap;html=1;rounded=0;shadow=0;comic=0;labelBackgroundColor=none;strokeWidth=1;fillColor=#000000;fontFamily=Verdana;fontSize=12;align=center;" vertex="1" parent="1">
          <mxGeometry x="80" y="120" width="40" height="40" as="geometry" />
        </mxCell>
        <mxCell id="FbyyjFnOJV8B7wnbFXzh-2" style="edgeStyle=orthogonalEdgeStyle;rounded=0;html=1;labelBackgroundColor=none;startArrow=none;startFill=0;startSize=5;endArrow=classicThin;endFill=1;endSize=5;jettySize=auto;orthogonalLoop=1;strokeWidth=1;fontFamily=Verdana;fontSize=12;exitX=0.5;exitY=1;exitDx=0;exitDy=0;" edge="1" parent="1" source="FbyyjFnOJV8B7wnbFXzh-1">
          <mxGeometry relative="1" as="geometry">
            <Array as="points">
              <mxPoint x="100" y="190" />
            </Array>
            <mxPoint x="93" y="190" as="sourcePoint" />
            <mxPoint x="100" y="200" as="targetPoint" />
          </mxGeometry>
        </mxCell>
        <mxCell id="FbyyjFnOJV8B7wnbFXzh-3" value="Sprawdzanie warunków" style="rounded=1;whiteSpace=wrap;html=1;shadow=0;comic=0;labelBackgroundColor=none;strokeWidth=1;fontFamily=Verdana;fontSize=12;align=center;arcSize=50;" vertex="1" parent="1">
          <mxGeometry x="50" y="200" width="100" height="40" as="geometry" />
        </mxCell>
        <mxCell id="FbyyjFnOJV8B7wnbFXzh-4" value="" style="endArrow=classic;html=1;rounded=0;exitX=0.5;exitY=1;exitDx=0;exitDy=0;entryX=0.5;entryY=0;entryDx=0;entryDy=0;" edge="1" parent="1" source="FbyyjFnOJV8B7wnbFXzh-3">
          <mxGeometry width="50" height="50" relative="1" as="geometry">
            <mxPoint x="193" y="270" as="sourcePoint" />
            <mxPoint x="100" y="280" as="targetPoint" />
          </mxGeometry>
        </mxCell>
        <mxCell id="FbyyjFnOJV8B7wnbFXzh-5" style="edgeStyle=orthogonalEdgeStyle;rounded=0;orthogonalLoop=1;jettySize=auto;html=1;exitX=0.5;exitY=1;exitDx=0;exitDy=0;" edge="1" parent="1" source="FbyyjFnOJV8B7wnbFXzh-7">
          <mxGeometry relative="1" as="geometry">
            <mxPoint x="100" y="400" as="targetPoint" />
          </mxGeometry>
        </mxCell>
        <mxCell id="FbyyjFnOJV8B7wnbFXzh-6" style="edgeStyle=orthogonalEdgeStyle;rounded=0;orthogonalLoop=1;jettySize=auto;html=1;exitX=1;exitY=0.5;exitDx=0;exitDy=0;" edge="1" parent="1" source="FbyyjFnOJV8B7wnbFXzh-7">
          <mxGeometry relative="1" as="geometry">
            <mxPoint x="203" y="320" as="targetPoint" />
          </mxGeometry>
        </mxCell>
        <mxCell id="FbyyjFnOJV8B7wnbFXzh-7" value="" style="rhombus;whiteSpace=wrap;html=1;" vertex="1" parent="1">
          <mxGeometry x="60" y="280" width="80" height="80" as="geometry" />
        </mxCell>
        <mxCell id="FbyyjFnOJV8B7wnbFXzh-8" value="" style="shape=mxgraph.bpmn.shape;html=1;verticalLabelPosition=bottom;labelBackgroundColor=#ffffff;verticalAlign=top;perimeter=ellipsePerimeter;outline=end;symbol=terminate;rounded=0;shadow=0;comic=0;strokeWidth=1;fontFamily=Verdana;fontSize=12;align=center;" vertex="1" parent="1">
          <mxGeometry x="80" y="480" width="40" height="40" as="geometry" />
        </mxCell>
        <mxCell id="FbyyjFnOJV8B7wnbFXzh-9" value="&lt;font style=&quot;font-size: 14px;&quot;&gt;&lt;b&gt;F&lt;/b&gt;&lt;/font&gt;" style="text;html=1;align=center;verticalAlign=middle;whiteSpace=wrap;rounded=0;" vertex="1" parent="1">
          <mxGeometry x="73" y="360" width="30" height="30" as="geometry" />
        </mxCell>
        <mxCell id="FbyyjFnOJV8B7wnbFXzh-10" value="&lt;b&gt;&lt;font style=&quot;font-size: 14px;&quot;&gt;T&lt;/font&gt;&lt;/b&gt;" style="text;html=1;align=center;verticalAlign=middle;whiteSpace=wrap;rounded=0;" vertex="1" parent="1">
          <mxGeometry x="150" y="290" width="30" height="30" as="geometry" />
        </mxCell>
        <mxCell id="FbyyjFnOJV8B7wnbFXzh-22" style="edgeStyle=orthogonalEdgeStyle;rounded=0;orthogonalLoop=1;jettySize=auto;html=1;exitX=0.5;exitY=1;exitDx=0;exitDy=0;entryX=0.5;entryY=0;entryDx=0;entryDy=0;" edge="1" parent="1" source="FbyyjFnOJV8B7wnbFXzh-11" target="FbyyjFnOJV8B7wnbFXzh-8">
          <mxGeometry relative="1" as="geometry" />
        </mxCell>
        <mxCell id="FbyyjFnOJV8B7wnbFXzh-11" value="instrukcja2" style="rounded=1;whiteSpace=wrap;html=1;shadow=0;comic=0;labelBackgroundColor=none;strokeWidth=1;fontFamily=Verdana;fontSize=12;align=center;arcSize=50;" vertex="1" parent="1">
          <mxGeometry x="55" y="400" width="90" height="30" as="geometry" />
        </mxCell>
        <mxCell id="FbyyjFnOJV8B7wnbFXzh-12" value="" style="endArrow=classic;html=1;rounded=0;entryX=1;entryY=0.5;entryDx=0;entryDy=0;exitX=1;exitY=0.5;exitDx=0;exitDy=0;" edge="1" parent="1" source="FbyyjFnOJV8B7wnbFXzh-13" target="FbyyjFnOJV8B7wnbFXzh-8">
          <mxGeometry width="50" height="50" relative="1" as="geometry">
            <mxPoint x="320" y="320" as="sourcePoint" />
            <mxPoint x="343" y="320" as="targetPoint" />
            <Array as="points">
              <mxPoint x="320" y="320" />
              <mxPoint x="320" y="500" />
            </Array>
          </mxGeometry>
        </mxCell>
        <mxCell id="FbyyjFnOJV8B7wnbFXzh-13" value="instrukcja1" style="rounded=1;whiteSpace=wrap;html=1;shadow=0;comic=0;labelBackgroundColor=none;strokeWidth=1;fontFamily=Verdana;fontSize=12;align=center;arcSize=50;" vertex="1" parent="1">
          <mxGeometry x="203" y="305" width="90" height="30" as="geometry" />
        </mxCell>
      </root>
    </mxGraphModel>
  </diagram>
  <diagram id="zEAc-zCl88HkdjdqWWX1" name="page-3">
    <mxGraphModel dx="1050" dy="542" grid="1" gridSize="10" guides="1" tooltips="1" connect="1" arrows="1" fold="1" page="1" pageScale="1" pageWidth="827" pageHeight="1169" math="0" shadow="0">
      <root>
        <mxCell id="0" />
        <mxCell id="1" parent="0" />
        <mxCell id="CHLKVsuMIlPSRl3qFHhm-1" value="instrukcja while" style="text;whiteSpace=wrap;fontSize=20;" vertex="1" parent="1">
          <mxGeometry x="40" y="40" width="150" height="40" as="geometry" />
        </mxCell>
        <mxCell id="3d9QQM9I_QeodNrzl918-1" value="" style="ellipse;whiteSpace=wrap;html=1;rounded=0;shadow=0;comic=0;labelBackgroundColor=none;strokeWidth=1;fillColor=#000000;fontFamily=Verdana;fontSize=12;align=center;" vertex="1" parent="1">
          <mxGeometry x="80" y="120" width="40" height="40" as="geometry" />
        </mxCell>
        <mxCell id="3d9QQM9I_QeodNrzl918-2" style="edgeStyle=orthogonalEdgeStyle;rounded=0;html=1;labelBackgroundColor=none;startArrow=none;startFill=0;startSize=5;endArrow=classicThin;endFill=1;endSize=5;jettySize=auto;orthogonalLoop=1;strokeWidth=1;fontFamily=Verdana;fontSize=12;exitX=0.5;exitY=1;exitDx=0;exitDy=0;" edge="1" parent="1" source="3d9QQM9I_QeodNrzl918-1">
          <mxGeometry relative="1" as="geometry">
            <Array as="points">
              <mxPoint x="100" y="190" />
            </Array>
            <mxPoint x="93" y="190" as="sourcePoint" />
            <mxPoint x="100" y="200" as="targetPoint" />
          </mxGeometry>
        </mxCell>
        <mxCell id="3d9QQM9I_QeodNrzl918-3" value="Sprawdzanie warunków" style="rounded=1;whiteSpace=wrap;html=1;shadow=0;comic=0;labelBackgroundColor=none;strokeWidth=1;fontFamily=Verdana;fontSize=12;align=center;arcSize=50;" vertex="1" parent="1">
          <mxGeometry x="50" y="200" width="100" height="40" as="geometry" />
        </mxCell>
        <mxCell id="3d9QQM9I_QeodNrzl918-4" value="" style="endArrow=classic;html=1;rounded=0;exitX=0.5;exitY=1;exitDx=0;exitDy=0;entryX=0.5;entryY=0;entryDx=0;entryDy=0;" edge="1" parent="1" source="3d9QQM9I_QeodNrzl918-3">
          <mxGeometry width="50" height="50" relative="1" as="geometry">
            <mxPoint x="193" y="270" as="sourcePoint" />
            <mxPoint x="100" y="280" as="targetPoint" />
          </mxGeometry>
        </mxCell>
        <mxCell id="3d9QQM9I_QeodNrzl918-5" style="edgeStyle=orthogonalEdgeStyle;rounded=0;orthogonalLoop=1;jettySize=auto;html=1;exitX=0.5;exitY=1;exitDx=0;exitDy=0;" edge="1" parent="1" source="3d9QQM9I_QeodNrzl918-7">
          <mxGeometry relative="1" as="geometry">
            <mxPoint x="100" y="400" as="targetPoint" />
          </mxGeometry>
        </mxCell>
        <mxCell id="3d9QQM9I_QeodNrzl918-6" style="edgeStyle=orthogonalEdgeStyle;rounded=0;orthogonalLoop=1;jettySize=auto;html=1;exitX=1;exitY=0.5;exitDx=0;exitDy=0;" edge="1" parent="1" source="3d9QQM9I_QeodNrzl918-7">
          <mxGeometry relative="1" as="geometry">
            <mxPoint x="203" y="320" as="targetPoint" />
          </mxGeometry>
        </mxCell>
        <mxCell id="3d9QQM9I_QeodNrzl918-7" value="" style="rhombus;whiteSpace=wrap;html=1;" vertex="1" parent="1">
          <mxGeometry x="60" y="280" width="80" height="80" as="geometry" />
        </mxCell>
        <mxCell id="3d9QQM9I_QeodNrzl918-8" value="" style="shape=mxgraph.bpmn.shape;html=1;verticalLabelPosition=bottom;labelBackgroundColor=#ffffff;verticalAlign=top;perimeter=ellipsePerimeter;outline=end;symbol=terminate;rounded=0;shadow=0;comic=0;strokeWidth=1;fontFamily=Verdana;fontSize=12;align=center;" vertex="1" parent="1">
          <mxGeometry x="80" y="400" width="40" height="40" as="geometry" />
        </mxCell>
        <mxCell id="3d9QQM9I_QeodNrzl918-9" value="&lt;font style=&quot;font-size: 14px;&quot;&gt;&lt;b&gt;F&lt;/b&gt;&lt;/font&gt;" style="text;html=1;align=center;verticalAlign=middle;whiteSpace=wrap;rounded=0;" vertex="1" parent="1">
          <mxGeometry x="73" y="360" width="30" height="30" as="geometry" />
        </mxCell>
        <mxCell id="3d9QQM9I_QeodNrzl918-10" value="&lt;b&gt;&lt;font style=&quot;font-size: 14px;&quot;&gt;T&lt;/font&gt;&lt;/b&gt;" style="text;html=1;align=center;verticalAlign=middle;whiteSpace=wrap;rounded=0;" vertex="1" parent="1">
          <mxGeometry x="150" y="290" width="30" height="30" as="geometry" />
        </mxCell>
        <mxCell id="3d9QQM9I_QeodNrzl918-13" value="" style="endArrow=classic;html=1;rounded=0;entryX=1;entryY=0.5;entryDx=0;entryDy=0;exitX=1;exitY=0.5;exitDx=0;exitDy=0;" edge="1" parent="1" source="3d9QQM9I_QeodNrzl918-14" target="3d9QQM9I_QeodNrzl918-3">
          <mxGeometry width="50" height="50" relative="1" as="geometry">
            <mxPoint x="320" y="320" as="sourcePoint" />
            <mxPoint x="343" y="320" as="targetPoint" />
            <Array as="points">
              <mxPoint x="320" y="320" />
              <mxPoint x="320" y="220" />
            </Array>
          </mxGeometry>
        </mxCell>
        <mxCell id="3d9QQM9I_QeodNrzl918-14" value="instrukcja" style="rounded=1;whiteSpace=wrap;html=1;shadow=0;comic=0;labelBackgroundColor=none;strokeWidth=1;fontFamily=Verdana;fontSize=12;align=center;arcSize=50;" vertex="1" parent="1">
          <mxGeometry x="203" y="305" width="90" height="30" as="geometry" />
        </mxCell>
      </root>
    </mxGraphModel>
  </diagram>
  <diagram id="02btnyDBKAlUK5tfnYAF" name="page-4">
    <mxGraphModel dx="1050" dy="542" grid="1" gridSize="10" guides="1" tooltips="1" connect="1" arrows="1" fold="1" page="1" pageScale="1" pageWidth="827" pageHeight="1169" math="0" shadow="0">
      <root>
        <mxCell id="0" />
        <mxCell id="1" parent="0" />
        <mxCell id="BW2oxErtKBCoMnAeaJoO-1" value="instrukcja do-while" style="text;whiteSpace=wrap;fontSize=20;" vertex="1" parent="1">
          <mxGeometry x="40" y="40" width="180" height="40" as="geometry" />
        </mxCell>
        <mxCell id="pOmZ193clBfbNJKpJkKb-1" value="" style="ellipse;whiteSpace=wrap;html=1;rounded=0;shadow=0;comic=0;labelBackgroundColor=none;strokeWidth=1;fillColor=#000000;fontFamily=Verdana;fontSize=12;align=center;" vertex="1" parent="1">
          <mxGeometry x="80" y="120" width="40" height="40" as="geometry" />
        </mxCell>
        <mxCell id="pOmZ193clBfbNJKpJkKb-2" style="edgeStyle=orthogonalEdgeStyle;rounded=0;html=1;labelBackgroundColor=none;startArrow=none;startFill=0;startSize=5;endArrow=classicThin;endFill=1;endSize=5;jettySize=auto;orthogonalLoop=1;strokeWidth=1;fontFamily=Verdana;fontSize=12;exitX=0.5;exitY=1;exitDx=0;exitDy=0;" edge="1" parent="1" source="pOmZ193clBfbNJKpJkKb-1">
          <mxGeometry relative="1" as="geometry">
            <Array as="points">
              <mxPoint x="100" y="190" />
            </Array>
            <mxPoint x="93" y="190" as="sourcePoint" />
            <mxPoint x="100" y="200" as="targetPoint" />
          </mxGeometry>
        </mxCell>
        <mxCell id="pOmZ193clBfbNJKpJkKb-3" value="Sprawdzanie warunków" style="rounded=1;whiteSpace=wrap;html=1;shadow=0;comic=0;labelBackgroundColor=none;strokeWidth=1;fontFamily=Verdana;fontSize=12;align=center;arcSize=50;" vertex="1" parent="1">
          <mxGeometry x="50" y="320" width="100" height="40" as="geometry" />
        </mxCell>
        <mxCell id="pOmZ193clBfbNJKpJkKb-4" value="" style="endArrow=classic;html=1;rounded=0;exitX=0.5;exitY=1;exitDx=0;exitDy=0;entryX=0.5;entryY=0;entryDx=0;entryDy=0;" edge="1" parent="1" source="pOmZ193clBfbNJKpJkKb-3">
          <mxGeometry width="50" height="50" relative="1" as="geometry">
            <mxPoint x="193" y="390" as="sourcePoint" />
            <mxPoint x="100" y="400" as="targetPoint" />
          </mxGeometry>
        </mxCell>
        <mxCell id="pOmZ193clBfbNJKpJkKb-5" style="edgeStyle=orthogonalEdgeStyle;rounded=0;orthogonalLoop=1;jettySize=auto;html=1;exitX=0.5;exitY=1;exitDx=0;exitDy=0;" edge="1" parent="1" source="pOmZ193clBfbNJKpJkKb-7">
          <mxGeometry relative="1" as="geometry">
            <mxPoint x="100" y="520" as="targetPoint" />
          </mxGeometry>
        </mxCell>
        <mxCell id="pOmZ193clBfbNJKpJkKb-6" style="edgeStyle=orthogonalEdgeStyle;rounded=0;orthogonalLoop=1;jettySize=auto;html=1;exitX=1;exitY=0.5;exitDx=0;exitDy=0;entryX=0.5;entryY=0;entryDx=0;entryDy=0;" edge="1" parent="1" source="pOmZ193clBfbNJKpJkKb-7" target="901dqmWamxLzx2MEeCoo-3">
          <mxGeometry relative="1" as="geometry">
            <mxPoint x="203" y="440" as="targetPoint" />
            <Array as="points">
              <mxPoint x="200" y="440" />
              <mxPoint x="200" y="180" />
              <mxPoint x="100" y="180" />
            </Array>
          </mxGeometry>
        </mxCell>
        <mxCell id="pOmZ193clBfbNJKpJkKb-7" value="" style="rhombus;whiteSpace=wrap;html=1;" vertex="1" parent="1">
          <mxGeometry x="60" y="400" width="80" height="80" as="geometry" />
        </mxCell>
        <mxCell id="pOmZ193clBfbNJKpJkKb-8" value="" style="shape=mxgraph.bpmn.shape;html=1;verticalLabelPosition=bottom;labelBackgroundColor=#ffffff;verticalAlign=top;perimeter=ellipsePerimeter;outline=end;symbol=terminate;rounded=0;shadow=0;comic=0;strokeWidth=1;fontFamily=Verdana;fontSize=12;align=center;" vertex="1" parent="1">
          <mxGeometry x="80" y="520" width="40" height="40" as="geometry" />
        </mxCell>
        <mxCell id="pOmZ193clBfbNJKpJkKb-9" value="&lt;font style=&quot;font-size: 14px;&quot;&gt;&lt;b&gt;F&lt;/b&gt;&lt;/font&gt;" style="text;html=1;align=center;verticalAlign=middle;whiteSpace=wrap;rounded=0;" vertex="1" parent="1">
          <mxGeometry x="73" y="480" width="30" height="30" as="geometry" />
        </mxCell>
        <mxCell id="901dqmWamxLzx2MEeCoo-7" style="edgeStyle=orthogonalEdgeStyle;rounded=0;orthogonalLoop=1;jettySize=auto;html=1;exitX=0.5;exitY=1;exitDx=0;exitDy=0;" edge="1" parent="1" source="pOmZ193clBfbNJKpJkKb-12" target="pOmZ193clBfbNJKpJkKb-3">
          <mxGeometry relative="1" as="geometry" />
        </mxCell>
        <mxCell id="pOmZ193clBfbNJKpJkKb-12" value="instrukcja2" style="rounded=1;whiteSpace=wrap;html=1;shadow=0;comic=0;labelBackgroundColor=none;strokeWidth=1;fontFamily=Verdana;fontSize=12;align=center;arcSize=50;" vertex="1" parent="1">
          <mxGeometry x="55" y="260" width="90" height="30" as="geometry" />
        </mxCell>
        <mxCell id="901dqmWamxLzx2MEeCoo-1" value="&lt;b&gt;&lt;font style=&quot;font-size: 14px;&quot;&gt;T&lt;/font&gt;&lt;/b&gt;" style="text;html=1;align=center;verticalAlign=middle;whiteSpace=wrap;rounded=0;" vertex="1" parent="1">
          <mxGeometry x="150" y="410" width="30" height="30" as="geometry" />
        </mxCell>
        <mxCell id="901dqmWamxLzx2MEeCoo-4" style="edgeStyle=orthogonalEdgeStyle;rounded=0;orthogonalLoop=1;jettySize=auto;html=1;exitX=0.5;exitY=1;exitDx=0;exitDy=0;entryX=0.5;entryY=0;entryDx=0;entryDy=0;" edge="1" parent="1" source="901dqmWamxLzx2MEeCoo-3" target="pOmZ193clBfbNJKpJkKb-12">
          <mxGeometry relative="1" as="geometry" />
        </mxCell>
        <mxCell id="901dqmWamxLzx2MEeCoo-3" value="instrukcja1" style="rounded=1;whiteSpace=wrap;html=1;shadow=0;comic=0;labelBackgroundColor=none;strokeWidth=1;fontFamily=Verdana;fontSize=12;align=center;arcSize=50;" vertex="1" parent="1">
          <mxGeometry x="55" y="200" width="90" height="30" as="geometry" />
        </mxCell>
      </root>
    </mxGraphModel>
  </diagram>
  <diagram id="8FbPaHSS_QPl8USHvuh1" name="page-5">
    <mxGraphModel dx="1050" dy="542" grid="1" gridSize="10" guides="1" tooltips="1" connect="1" arrows="1" fold="1" page="1" pageScale="1" pageWidth="827" pageHeight="1169" math="0" shadow="0">
      <root>
        <mxCell id="0" />
        <mxCell id="1" parent="0" />
        <mxCell id="ScIWa-Pf4lRLEOSkcn3_-16" style="edgeStyle=orthogonalEdgeStyle;rounded=0;orthogonalLoop=1;jettySize=auto;html=1;exitX=0.5;exitY=1;exitDx=0;exitDy=0;" edge="1" parent="1" source="ScIWa-Pf4lRLEOSkcn3_-1" target="ScIWa-Pf4lRLEOSkcn3_-3">
          <mxGeometry relative="1" as="geometry" />
        </mxCell>
        <mxCell id="ScIWa-Pf4lRLEOSkcn3_-1" value="" style="ellipse;whiteSpace=wrap;html=1;rounded=0;shadow=0;comic=0;labelBackgroundColor=none;strokeWidth=1;fillColor=#000000;fontFamily=Verdana;fontSize=12;align=center;" vertex="1" parent="1">
          <mxGeometry x="80" y="120" width="40" height="40" as="geometry" />
        </mxCell>
        <mxCell id="ScIWa-Pf4lRLEOSkcn3_-3" value="Sprawdzanie warunków" style="rounded=1;whiteSpace=wrap;html=1;shadow=0;comic=0;labelBackgroundColor=none;strokeWidth=1;fontFamily=Verdana;fontSize=12;align=center;arcSize=50;" vertex="1" parent="1">
          <mxGeometry x="50" y="200" width="100" height="40" as="geometry" />
        </mxCell>
        <mxCell id="ScIWa-Pf4lRLEOSkcn3_-4" value="" style="endArrow=classic;html=1;rounded=0;exitX=0.5;exitY=1;exitDx=0;exitDy=0;entryX=0.5;entryY=0;entryDx=0;entryDy=0;" edge="1" parent="1" source="ScIWa-Pf4lRLEOSkcn3_-3">
          <mxGeometry width="50" height="50" relative="1" as="geometry">
            <mxPoint x="193" y="270" as="sourcePoint" />
            <mxPoint x="100" y="280" as="targetPoint" />
          </mxGeometry>
        </mxCell>
        <mxCell id="ScIWa-Pf4lRLEOSkcn3_-5" style="edgeStyle=orthogonalEdgeStyle;rounded=0;orthogonalLoop=1;jettySize=auto;html=1;exitX=0.5;exitY=1;exitDx=0;exitDy=0;" edge="1" parent="1" source="ScIWa-Pf4lRLEOSkcn3_-7">
          <mxGeometry relative="1" as="geometry">
            <mxPoint x="100" y="400" as="targetPoint" />
          </mxGeometry>
        </mxCell>
        <mxCell id="ScIWa-Pf4lRLEOSkcn3_-25" style="edgeStyle=orthogonalEdgeStyle;rounded=0;orthogonalLoop=1;jettySize=auto;html=1;exitX=1;exitY=0.5;exitDx=0;exitDy=0;" edge="1" parent="1" source="ScIWa-Pf4lRLEOSkcn3_-7" target="ScIWa-Pf4lRLEOSkcn3_-14">
          <mxGeometry relative="1" as="geometry">
            <mxPoint x="190" y="360" as="targetPoint" />
          </mxGeometry>
        </mxCell>
        <mxCell id="ScIWa-Pf4lRLEOSkcn3_-7" value="" style="rhombus;whiteSpace=wrap;html=1;" vertex="1" parent="1">
          <mxGeometry x="60" y="280" width="80" height="80" as="geometry" />
        </mxCell>
        <mxCell id="ScIWa-Pf4lRLEOSkcn3_-8" value="" style="shape=mxgraph.bpmn.shape;html=1;verticalLabelPosition=bottom;labelBackgroundColor=#ffffff;verticalAlign=top;perimeter=ellipsePerimeter;outline=end;symbol=terminate;rounded=0;shadow=0;comic=0;strokeWidth=1;fontFamily=Verdana;fontSize=12;align=center;" vertex="1" parent="1">
          <mxGeometry x="330" y="300" width="40" height="40" as="geometry" />
        </mxCell>
        <mxCell id="ScIWa-Pf4lRLEOSkcn3_-9" value="&lt;font style=&quot;font-size: 14px;&quot;&gt;&lt;b&gt;F&lt;/b&gt;&lt;/font&gt;" style="text;html=1;align=center;verticalAlign=middle;whiteSpace=wrap;rounded=0;" vertex="1" parent="1">
          <mxGeometry x="73" y="360" width="30" height="30" as="geometry" />
        </mxCell>
        <mxCell id="ScIWa-Pf4lRLEOSkcn3_-55" style="edgeStyle=orthogonalEdgeStyle;rounded=0;orthogonalLoop=1;jettySize=auto;html=1;exitX=0.5;exitY=1;exitDx=0;exitDy=0;entryX=1;entryY=0.5;entryDx=0;entryDy=0;" edge="1" parent="1" source="ScIWa-Pf4lRLEOSkcn3_-11" target="ScIWa-Pf4lRLEOSkcn3_-45">
          <mxGeometry relative="1" as="geometry" />
        </mxCell>
        <mxCell id="ScIWa-Pf4lRLEOSkcn3_-11" value="instrukcja2" style="rounded=1;whiteSpace=wrap;html=1;shadow=0;comic=0;labelBackgroundColor=none;strokeWidth=1;fontFamily=Verdana;fontSize=12;align=center;arcSize=50;" vertex="1" parent="1">
          <mxGeometry x="200" y="505" width="90" height="30" as="geometry" />
        </mxCell>
        <mxCell id="ScIWa-Pf4lRLEOSkcn3_-12" value="&lt;b&gt;&lt;font style=&quot;font-size: 14px;&quot;&gt;T&lt;/font&gt;&lt;/b&gt;" style="text;html=1;align=center;verticalAlign=middle;whiteSpace=wrap;rounded=0;" vertex="1" parent="1">
          <mxGeometry x="150" y="290" width="30" height="30" as="geometry" />
        </mxCell>
        <mxCell id="ScIWa-Pf4lRLEOSkcn3_-26" value="" style="edgeStyle=orthogonalEdgeStyle;rounded=0;orthogonalLoop=1;jettySize=auto;html=1;" edge="1" parent="1" source="ScIWa-Pf4lRLEOSkcn3_-14" target="ScIWa-Pf4lRLEOSkcn3_-8">
          <mxGeometry relative="1" as="geometry" />
        </mxCell>
        <mxCell id="ScIWa-Pf4lRLEOSkcn3_-14" value="instrukcja1" style="rounded=1;whiteSpace=wrap;html=1;shadow=0;comic=0;labelBackgroundColor=none;strokeWidth=1;fontFamily=Verdana;fontSize=12;align=center;arcSize=50;" vertex="1" parent="1">
          <mxGeometry x="200" y="305" width="90" height="30" as="geometry" />
        </mxCell>
        <mxCell id="ScIWa-Pf4lRLEOSkcn3_-15" value="instrukcja switch" style="text;whiteSpace=wrap;fontSize=20;" vertex="1" parent="1">
          <mxGeometry x="40" y="40" width="160" height="40" as="geometry" />
        </mxCell>
        <mxCell id="ScIWa-Pf4lRLEOSkcn3_-18" value="Sprawdzanie warunków" style="rounded=1;whiteSpace=wrap;html=1;shadow=0;comic=0;labelBackgroundColor=none;strokeWidth=1;fontFamily=Verdana;fontSize=12;align=center;arcSize=50;" vertex="1" parent="1">
          <mxGeometry x="50" y="400" width="100" height="40" as="geometry" />
        </mxCell>
        <mxCell id="ScIWa-Pf4lRLEOSkcn3_-19" value="" style="endArrow=classic;html=1;rounded=0;exitX=0.5;exitY=1;exitDx=0;exitDy=0;entryX=0.5;entryY=0;entryDx=0;entryDy=0;" edge="1" parent="1" source="ScIWa-Pf4lRLEOSkcn3_-18">
          <mxGeometry width="50" height="50" relative="1" as="geometry">
            <mxPoint x="193" y="470" as="sourcePoint" />
            <mxPoint x="100" y="480" as="targetPoint" />
          </mxGeometry>
        </mxCell>
        <mxCell id="ScIWa-Pf4lRLEOSkcn3_-20" style="edgeStyle=orthogonalEdgeStyle;rounded=0;orthogonalLoop=1;jettySize=auto;html=1;exitX=0.5;exitY=1;exitDx=0;exitDy=0;" edge="1" parent="1" source="ScIWa-Pf4lRLEOSkcn3_-21">
          <mxGeometry relative="1" as="geometry">
            <mxPoint x="100" y="600" as="targetPoint" />
          </mxGeometry>
        </mxCell>
        <mxCell id="ScIWa-Pf4lRLEOSkcn3_-54" style="edgeStyle=orthogonalEdgeStyle;rounded=0;orthogonalLoop=1;jettySize=auto;html=1;exitX=1;exitY=0.5;exitDx=0;exitDy=0;entryX=0;entryY=0.5;entryDx=0;entryDy=0;" edge="1" parent="1" source="ScIWa-Pf4lRLEOSkcn3_-21" target="ScIWa-Pf4lRLEOSkcn3_-11">
          <mxGeometry relative="1" as="geometry" />
        </mxCell>
        <mxCell id="ScIWa-Pf4lRLEOSkcn3_-21" value="" style="rhombus;whiteSpace=wrap;html=1;" vertex="1" parent="1">
          <mxGeometry x="60" y="480" width="80" height="80" as="geometry" />
        </mxCell>
        <mxCell id="ScIWa-Pf4lRLEOSkcn3_-22" value="&lt;font style=&quot;font-size: 14px;&quot;&gt;&lt;b&gt;F&lt;/b&gt;&lt;/font&gt;" style="text;html=1;align=center;verticalAlign=middle;whiteSpace=wrap;rounded=0;" vertex="1" parent="1">
          <mxGeometry x="73" y="560" width="30" height="30" as="geometry" />
        </mxCell>
        <mxCell id="ScIWa-Pf4lRLEOSkcn3_-23" value="&lt;b&gt;&lt;font style=&quot;font-size: 14px;&quot;&gt;T&lt;/font&gt;&lt;/b&gt;" style="text;html=1;align=center;verticalAlign=middle;whiteSpace=wrap;rounded=0;" vertex="1" parent="1">
          <mxGeometry x="150" y="490" width="30" height="30" as="geometry" />
        </mxCell>
        <mxCell id="ScIWa-Pf4lRLEOSkcn3_-53" value="" style="edgeStyle=orthogonalEdgeStyle;rounded=0;orthogonalLoop=1;jettySize=auto;html=1;" edge="1" parent="1" source="ScIWa-Pf4lRLEOSkcn3_-45" target="ScIWa-Pf4lRLEOSkcn3_-48">
          <mxGeometry relative="1" as="geometry" />
        </mxCell>
        <mxCell id="ScIWa-Pf4lRLEOSkcn3_-45" value="Sprawdzanie warunków" style="rounded=1;whiteSpace=wrap;html=1;shadow=0;comic=0;labelBackgroundColor=none;strokeWidth=1;fontFamily=Verdana;fontSize=12;align=center;arcSize=50;" vertex="1" parent="1">
          <mxGeometry x="50" y="600" width="100" height="40" as="geometry" />
        </mxCell>
        <mxCell id="ScIWa-Pf4lRLEOSkcn3_-47" style="edgeStyle=orthogonalEdgeStyle;rounded=0;orthogonalLoop=1;jettySize=auto;html=1;exitX=0.5;exitY=1;exitDx=0;exitDy=0;" edge="1" parent="1" source="ScIWa-Pf4lRLEOSkcn3_-48">
          <mxGeometry relative="1" as="geometry">
            <mxPoint x="100" y="800" as="targetPoint" />
          </mxGeometry>
        </mxCell>
        <mxCell id="ScIWa-Pf4lRLEOSkcn3_-57" style="edgeStyle=orthogonalEdgeStyle;rounded=0;orthogonalLoop=1;jettySize=auto;html=1;exitX=1;exitY=0.5;exitDx=0;exitDy=0;entryX=0;entryY=0.5;entryDx=0;entryDy=0;" edge="1" parent="1" source="ScIWa-Pf4lRLEOSkcn3_-48" target="ScIWa-Pf4lRLEOSkcn3_-56">
          <mxGeometry relative="1" as="geometry" />
        </mxCell>
        <mxCell id="ScIWa-Pf4lRLEOSkcn3_-48" value="" style="rhombus;whiteSpace=wrap;html=1;" vertex="1" parent="1">
          <mxGeometry x="60" y="680" width="80" height="80" as="geometry" />
        </mxCell>
        <mxCell id="ScIWa-Pf4lRLEOSkcn3_-49" value="&lt;font style=&quot;font-size: 14px;&quot;&gt;&lt;b&gt;F&lt;/b&gt;&lt;/font&gt;" style="text;html=1;align=center;verticalAlign=middle;whiteSpace=wrap;rounded=0;" vertex="1" parent="1">
          <mxGeometry x="73" y="760" width="30" height="30" as="geometry" />
        </mxCell>
        <mxCell id="ScIWa-Pf4lRLEOSkcn3_-50" value="&lt;b&gt;&lt;font style=&quot;font-size: 14px;&quot;&gt;T&lt;/font&gt;&lt;/b&gt;" style="text;html=1;align=center;verticalAlign=middle;whiteSpace=wrap;rounded=0;" vertex="1" parent="1">
          <mxGeometry x="150" y="690" width="30" height="30" as="geometry" />
        </mxCell>
        <mxCell id="ScIWa-Pf4lRLEOSkcn3_-60" style="edgeStyle=orthogonalEdgeStyle;rounded=0;orthogonalLoop=1;jettySize=auto;html=1;exitX=1;exitY=0.5;exitDx=0;exitDy=0;entryX=0;entryY=0.5;entryDx=0;entryDy=0;" edge="1" parent="1" source="ScIWa-Pf4lRLEOSkcn3_-56" target="ScIWa-Pf4lRLEOSkcn3_-58">
          <mxGeometry relative="1" as="geometry" />
        </mxCell>
        <mxCell id="ScIWa-Pf4lRLEOSkcn3_-56" value="instrukcja3" style="rounded=1;whiteSpace=wrap;html=1;shadow=0;comic=0;labelBackgroundColor=none;strokeWidth=1;fontFamily=Verdana;fontSize=12;align=center;arcSize=50;" vertex="1" parent="1">
          <mxGeometry x="200" y="705" width="90" height="30" as="geometry" />
        </mxCell>
        <mxCell id="ScIWa-Pf4lRLEOSkcn3_-58" value="" style="shape=mxgraph.bpmn.shape;html=1;verticalLabelPosition=bottom;labelBackgroundColor=#ffffff;verticalAlign=top;perimeter=ellipsePerimeter;outline=end;symbol=terminate;rounded=0;shadow=0;comic=0;strokeWidth=1;fontFamily=Verdana;fontSize=12;align=center;" vertex="1" parent="1">
          <mxGeometry x="320" y="700" width="40" height="40" as="geometry" />
        </mxCell>
        <mxCell id="ScIWa-Pf4lRLEOSkcn3_-64" value="" style="edgeStyle=orthogonalEdgeStyle;rounded=0;orthogonalLoop=1;jettySize=auto;html=1;" edge="1" parent="1" source="ScIWa-Pf4lRLEOSkcn3_-61" target="ScIWa-Pf4lRLEOSkcn3_-63">
          <mxGeometry relative="1" as="geometry" />
        </mxCell>
        <mxCell id="ScIWa-Pf4lRLEOSkcn3_-61" value="instrukcja4" style="rounded=1;whiteSpace=wrap;html=1;shadow=0;comic=0;labelBackgroundColor=none;strokeWidth=1;fontFamily=Verdana;fontSize=12;align=center;arcSize=50;" vertex="1" parent="1">
          <mxGeometry x="55" y="800" width="90" height="30" as="geometry" />
        </mxCell>
        <mxCell id="ScIWa-Pf4lRLEOSkcn3_-63" value="" style="shape=mxgraph.bpmn.shape;html=1;verticalLabelPosition=bottom;labelBackgroundColor=#ffffff;verticalAlign=top;perimeter=ellipsePerimeter;outline=end;symbol=terminate;rounded=0;shadow=0;comic=0;strokeWidth=1;fontFamily=Verdana;fontSize=12;align=center;" vertex="1" parent="1">
          <mxGeometry x="80" y="860" width="40" height="40" as="geometry" />
        </mxCell>
      </root>
    </mxGraphModel>
  </diagram>
  <diagram id="q6dVsjntVSYRrp9Igby8" name="page-6">
    <mxGraphModel dx="1050" dy="542" grid="1" gridSize="10" guides="1" tooltips="1" connect="1" arrows="1" fold="1" page="1" pageScale="1" pageWidth="827" pageHeight="1169" math="0" shadow="0">
      <root>
        <mxCell id="0" />
        <mxCell id="1" parent="0" />
        <mxCell id="hecNUtLFGx92vJlnImmd-14" value="" style="edgeStyle=orthogonalEdgeStyle;rounded=0;orthogonalLoop=1;jettySize=auto;html=1;" edge="1" parent="1" source="hecNUtLFGx92vJlnImmd-1" target="hecNUtLFGx92vJlnImmd-3">
          <mxGeometry relative="1" as="geometry" />
        </mxCell>
        <mxCell id="hecNUtLFGx92vJlnImmd-1" value="" style="ellipse;whiteSpace=wrap;html=1;rounded=0;shadow=0;comic=0;labelBackgroundColor=none;strokeWidth=1;fillColor=#000000;fontFamily=Verdana;fontSize=12;align=center;" vertex="1" parent="1">
          <mxGeometry x="80" y="40" width="40" height="40" as="geometry" />
        </mxCell>
        <mxCell id="hecNUtLFGx92vJlnImmd-16" value="" style="edgeStyle=orthogonalEdgeStyle;rounded=0;orthogonalLoop=1;jettySize=auto;html=1;" edge="1" parent="1" source="hecNUtLFGx92vJlnImmd-3" target="hecNUtLFGx92vJlnImmd-15">
          <mxGeometry relative="1" as="geometry" />
        </mxCell>
        <mxCell id="hecNUtLFGx92vJlnImmd-3" value="Otwarcie okna logowania" style="rounded=1;whiteSpace=wrap;html=1;shadow=0;comic=0;labelBackgroundColor=none;strokeWidth=1;fontFamily=Verdana;fontSize=12;align=center;arcSize=50;" vertex="1" parent="1">
          <mxGeometry x="160" y="40" width="100" height="40" as="geometry" />
        </mxCell>
        <mxCell id="hecNUtLFGx92vJlnImmd-8" value="" style="shape=mxgraph.bpmn.shape;html=1;verticalLabelPosition=bottom;labelBackgroundColor=#ffffff;verticalAlign=top;perimeter=ellipsePerimeter;outline=end;symbol=terminate;rounded=0;shadow=0;comic=0;strokeWidth=1;fontFamily=Verdana;fontSize=12;align=center;" vertex="1" parent="1">
          <mxGeometry x="444" y="390" width="40" height="40" as="geometry" />
        </mxCell>
        <mxCell id="hecNUtLFGx92vJlnImmd-9" value="&lt;font style=&quot;font-size: 14px;&quot;&gt;&lt;b&gt;F&lt;/b&gt;&lt;/font&gt;" style="text;html=1;align=center;verticalAlign=middle;whiteSpace=wrap;rounded=0;" vertex="1" parent="1">
          <mxGeometry x="270" y="250" width="30" height="30" as="geometry" />
        </mxCell>
        <mxCell id="hecNUtLFGx92vJlnImmd-10" value="&lt;b&gt;&lt;font style=&quot;font-size: 14px;&quot;&gt;T&lt;/font&gt;&lt;/b&gt;" style="text;html=1;align=center;verticalAlign=middle;whiteSpace=wrap;rounded=0;" vertex="1" parent="1">
          <mxGeometry x="400" y="250" width="30" height="30" as="geometry" />
        </mxCell>
        <mxCell id="hecNUtLFGx92vJlnImmd-19" value="" style="edgeStyle=orthogonalEdgeStyle;rounded=0;orthogonalLoop=1;jettySize=auto;html=1;" edge="1" parent="1" source="hecNUtLFGx92vJlnImmd-15" target="hecNUtLFGx92vJlnImmd-17">
          <mxGeometry relative="1" as="geometry" />
        </mxCell>
        <mxCell id="hecNUtLFGx92vJlnImmd-15" value="Wpisanie logina i hasła" style="rounded=1;whiteSpace=wrap;html=1;shadow=0;comic=0;labelBackgroundColor=none;strokeWidth=1;fontFamily=Verdana;fontSize=12;align=center;arcSize=50;" vertex="1" parent="1">
          <mxGeometry x="300" y="40" width="100" height="40" as="geometry" />
        </mxCell>
        <mxCell id="hecNUtLFGx92vJlnImmd-24" style="edgeStyle=orthogonalEdgeStyle;rounded=0;orthogonalLoop=1;jettySize=auto;html=1;exitX=0;exitY=0.5;exitDx=0;exitDy=0;entryX=1;entryY=0.5;entryDx=0;entryDy=0;" edge="1" parent="1" source="hecNUtLFGx92vJlnImmd-17" target="hecNUtLFGx92vJlnImmd-23">
          <mxGeometry relative="1" as="geometry" />
        </mxCell>
        <mxCell id="hecNUtLFGx92vJlnImmd-17" value="&lt;div&gt;Sprawdzanie &lt;br&gt;&lt;/div&gt;&lt;div&gt;loginu i&lt;/div&gt;&lt;div&gt;hasłu&lt;/div&gt;" style="rhombus;whiteSpace=wrap;html=1;" vertex="1" parent="1">
          <mxGeometry x="310" y="240" width="80" height="80" as="geometry" />
        </mxCell>
        <mxCell id="hecNUtLFGx92vJlnImmd-21" value="" style="edgeStyle=orthogonalEdgeStyle;rounded=0;orthogonalLoop=1;jettySize=auto;html=1;" edge="1" parent="1" source="hecNUtLFGx92vJlnImmd-20" target="hecNUtLFGx92vJlnImmd-8">
          <mxGeometry relative="1" as="geometry" />
        </mxCell>
        <mxCell id="hecNUtLFGx92vJlnImmd-20" value="&lt;div&gt;Otwarcie okna aplikacji&lt;/div&gt;" style="rounded=1;whiteSpace=wrap;html=1;shadow=0;comic=0;labelBackgroundColor=none;strokeWidth=1;fontFamily=Verdana;fontSize=12;align=center;arcSize=50;" vertex="1" parent="1">
          <mxGeometry x="414" y="320" width="100" height="40" as="geometry" />
        </mxCell>
        <mxCell id="hecNUtLFGx92vJlnImmd-22" value="" style="endArrow=classic;html=1;rounded=0;entryX=0.5;entryY=0;entryDx=0;entryDy=0;exitX=1;exitY=0.5;exitDx=0;exitDy=0;" edge="1" parent="1" source="hecNUtLFGx92vJlnImmd-17" target="hecNUtLFGx92vJlnImmd-20">
          <mxGeometry width="50" height="50" relative="1" as="geometry">
            <mxPoint x="390" y="210" as="sourcePoint" />
            <mxPoint x="440" y="160" as="targetPoint" />
            <Array as="points">
              <mxPoint x="464" y="280" />
            </Array>
          </mxGeometry>
        </mxCell>
        <mxCell id="zFscP8s7DfO14k6kfYao-8" style="edgeStyle=orthogonalEdgeStyle;rounded=0;orthogonalLoop=1;jettySize=auto;html=1;exitX=0.5;exitY=1;exitDx=0;exitDy=0;entryX=0.5;entryY=0;entryDx=0;entryDy=0;" edge="1" parent="1" source="hecNUtLFGx92vJlnImmd-23" target="zFscP8s7DfO14k6kfYao-6">
          <mxGeometry relative="1" as="geometry" />
        </mxCell>
        <mxCell id="Wh09qQV4xJCN8ZavE213-2" style="edgeStyle=orthogonalEdgeStyle;rounded=0;orthogonalLoop=1;jettySize=auto;html=1;exitX=0.5;exitY=0;exitDx=0;exitDy=0;entryX=0.25;entryY=1;entryDx=0;entryDy=0;" edge="1" parent="1" source="hecNUtLFGx92vJlnImmd-23" target="Wh09qQV4xJCN8ZavE213-1">
          <mxGeometry relative="1" as="geometry" />
        </mxCell>
        <mxCell id="hecNUtLFGx92vJlnImmd-23" value="&lt;div&gt;Liczba &lt;br&gt;&lt;/div&gt;&lt;div&gt;logowań &lt;br&gt;&lt;/div&gt;&lt;div&gt;&amp;lt;3&lt;/div&gt;" style="rhombus;whiteSpace=wrap;html=1;" vertex="1" parent="1">
          <mxGeometry x="170" y="240" width="80" height="80" as="geometry" />
        </mxCell>
        <mxCell id="zFscP8s7DfO14k6kfYao-1" value="&lt;b&gt;&lt;font style=&quot;font-size: 14px;&quot;&gt;T&lt;/font&gt;&lt;/b&gt;" style="text;html=1;align=center;verticalAlign=middle;whiteSpace=wrap;rounded=0;" vertex="1" parent="1">
          <mxGeometry x="170" y="210" width="30" height="30" as="geometry" />
        </mxCell>
        <mxCell id="zFscP8s7DfO14k6kfYao-4" value="&lt;font style=&quot;font-size: 14px;&quot;&gt;&lt;b&gt;F&lt;/b&gt;&lt;/font&gt;" style="text;html=1;align=center;verticalAlign=middle;whiteSpace=wrap;rounded=0;" vertex="1" parent="1">
          <mxGeometry x="180" y="325" width="30" height="30" as="geometry" />
        </mxCell>
        <mxCell id="zFscP8s7DfO14k6kfYao-11" value="" style="edgeStyle=orthogonalEdgeStyle;rounded=0;orthogonalLoop=1;jettySize=auto;html=1;" edge="1" parent="1" source="zFscP8s7DfO14k6kfYao-6" target="zFscP8s7DfO14k6kfYao-10">
          <mxGeometry relative="1" as="geometry" />
        </mxCell>
        <mxCell id="zFscP8s7DfO14k6kfYao-6" value="Błokowanie konta" style="rounded=1;whiteSpace=wrap;html=1;shadow=0;comic=0;labelBackgroundColor=none;strokeWidth=1;fontFamily=Verdana;fontSize=12;align=center;arcSize=50;" vertex="1" parent="1">
          <mxGeometry x="160" y="360" width="100" height="40" as="geometry" />
        </mxCell>
        <mxCell id="zFscP8s7DfO14k6kfYao-10" value="" style="shape=mxgraph.bpmn.shape;html=1;verticalLabelPosition=bottom;labelBackgroundColor=#ffffff;verticalAlign=top;perimeter=ellipsePerimeter;outline=end;symbol=terminate;rounded=0;shadow=0;comic=0;strokeWidth=1;fontFamily=Verdana;fontSize=12;align=center;" vertex="1" parent="1">
          <mxGeometry x="190" y="420" width="40" height="40" as="geometry" />
        </mxCell>
        <mxCell id="Wh09qQV4xJCN8ZavE213-7" style="edgeStyle=orthogonalEdgeStyle;rounded=0;orthogonalLoop=1;jettySize=auto;html=1;exitX=0.5;exitY=0;exitDx=0;exitDy=0;entryX=0;entryY=1;entryDx=0;entryDy=0;" edge="1" parent="1" source="zFscP8s7DfO14k6kfYao-13" target="hecNUtLFGx92vJlnImmd-15">
          <mxGeometry relative="1" as="geometry" />
        </mxCell>
        <mxCell id="zFscP8s7DfO14k6kfYao-13" value="Propozycja zmiany hasła" style="rounded=1;whiteSpace=wrap;html=1;shadow=0;comic=0;labelBackgroundColor=none;strokeWidth=1;fontFamily=Verdana;fontSize=12;align=center;arcSize=50;" vertex="1" parent="1">
          <mxGeometry x="160" y="130" width="100" height="30" as="geometry" />
        </mxCell>
        <mxCell id="Wh09qQV4xJCN8ZavE213-6" style="edgeStyle=orthogonalEdgeStyle;rounded=0;orthogonalLoop=1;jettySize=auto;html=1;exitX=0.25;exitY=0;exitDx=0;exitDy=0;" edge="1" parent="1" source="Wh09qQV4xJCN8ZavE213-1" target="zFscP8s7DfO14k6kfYao-13">
          <mxGeometry relative="1" as="geometry" />
        </mxCell>
        <mxCell id="Wh09qQV4xJCN8ZavE213-9" style="edgeStyle=orthogonalEdgeStyle;rounded=0;orthogonalLoop=1;jettySize=auto;html=1;exitX=0.75;exitY=0;exitDx=0;exitDy=0;entryX=0;entryY=1;entryDx=0;entryDy=0;" edge="1" parent="1" source="Wh09qQV4xJCN8ZavE213-1" target="hecNUtLFGx92vJlnImmd-15">
          <mxGeometry relative="1" as="geometry">
            <Array as="points">
              <mxPoint x="248" y="170" />
              <mxPoint x="300" y="170" />
            </Array>
          </mxGeometry>
        </mxCell>
        <mxCell id="Wh09qQV4xJCN8ZavE213-1" value="" style="whiteSpace=wrap;html=1;rounded=0;shadow=0;comic=0;labelBackgroundColor=none;strokeWidth=1;fillColor=#000000;fontFamily=Verdana;fontSize=12;align=center;rotation=0;" vertex="1" parent="1">
          <mxGeometry x="190" y="200" width="77" height="10" as="geometry" />
        </mxCell>
      </root>
    </mxGraphModel>
  </diagram>
  <diagram id="AjsDwGavov0gZMiXqSXQ" name="page-7">
    <mxGraphModel dx="1044" dy="547" grid="1" gridSize="10" guides="1" tooltips="1" connect="1" arrows="1" fold="1" page="1" pageScale="1" pageWidth="827" pageHeight="1169" math="0" shadow="0">
      <root>
        <mxCell id="0" />
        <mxCell id="1" parent="0" />
        <mxCell id="XzJ-Qq1-SAinPGlyP32a-7" value="" style="edgeStyle=orthogonalEdgeStyle;rounded=0;orthogonalLoop=1;jettySize=auto;html=1;" edge="1" source="XzJ-Qq1-SAinPGlyP32a-8" parent="1">
          <mxGeometry relative="1" as="geometry">
            <mxPoint x="120" y="60" as="targetPoint" />
          </mxGeometry>
        </mxCell>
        <mxCell id="XzJ-Qq1-SAinPGlyP32a-8" value="" style="ellipse;whiteSpace=wrap;html=1;rounded=0;shadow=0;comic=0;labelBackgroundColor=none;strokeWidth=1;fillColor=#000000;fontFamily=Verdana;fontSize=12;align=center;" vertex="1" parent="1">
          <mxGeometry x="40" y="40" width="40" height="40" as="geometry" />
        </mxCell>
        <mxCell id="XzJ-Qq1-SAinPGlyP32a-9" value="Otwarte" style="rounded=1;whiteSpace=wrap;html=1;shadow=0;comic=0;labelBackgroundColor=none;strokeWidth=1;fontFamily=Verdana;fontSize=12;align=center;arcSize=50;" vertex="1" parent="1">
          <mxGeometry x="120" y="45" width="100" height="30" as="geometry" />
        </mxCell>
        <mxCell id="XzJ-Qq1-SAinPGlyP32a-10" style="edgeStyle=orthogonalEdgeStyle;rounded=0;orthogonalLoop=1;jettySize=auto;html=1;exitX=0.25;exitY=0;exitDx=0;exitDy=0;entryX=0;entryY=0.5;entryDx=0;entryDy=0;" edge="1" source="XzJ-Qq1-SAinPGlyP32a-12" target="XzJ-Qq1-SAinPGlyP32a-15" parent="1">
          <mxGeometry relative="1" as="geometry" />
        </mxCell>
        <mxCell id="XzJ-Qq1-SAinPGlyP32a-11" style="edgeStyle=orthogonalEdgeStyle;rounded=0;orthogonalLoop=1;jettySize=auto;html=1;exitX=0.75;exitY=0;exitDx=0;exitDy=0;entryX=0;entryY=0.5;entryDx=0;entryDy=0;" edge="1" source="XzJ-Qq1-SAinPGlyP32a-12" target="XzJ-Qq1-SAinPGlyP32a-14" parent="1">
          <mxGeometry relative="1" as="geometry" />
        </mxCell>
        <mxCell id="XzJ-Qq1-SAinPGlyP32a-12" value="" style="whiteSpace=wrap;html=1;rounded=0;shadow=0;comic=0;labelBackgroundColor=none;strokeWidth=1;fillColor=#000000;fontFamily=Verdana;fontSize=12;align=center;rotation=90;" vertex="1" parent="1">
          <mxGeometry x="230" y="55" width="77" height="10" as="geometry" />
        </mxCell>
        <mxCell id="XzJ-Qq1-SAinPGlyP32a-13" value="" style="endArrow=classic;html=1;rounded=0;entryX=0.5;entryY=1;entryDx=0;entryDy=0;" edge="1" target="XzJ-Qq1-SAinPGlyP32a-12" parent="1">
          <mxGeometry width="50" height="50" relative="1" as="geometry">
            <mxPoint x="220" y="60.25" as="sourcePoint" />
            <mxPoint x="650" y="-44.75" as="targetPoint" />
          </mxGeometry>
        </mxCell>
        <mxCell id="XzJ-Qq1-SAinPGlyP32a-14" value="zablokowanie" style="rounded=1;whiteSpace=wrap;html=1;shadow=0;comic=0;labelBackgroundColor=none;strokeWidth=1;fontFamily=Verdana;fontSize=12;align=center;arcSize=50;" vertex="1" parent="1">
          <mxGeometry x="327" y="65" width="103" height="30" as="geometry" />
        </mxCell>
        <mxCell id="XzJ-Qq1-SAinPGlyP32a-15" value="&lt;div&gt;delete&lt;/div&gt;" style="rounded=1;whiteSpace=wrap;html=1;shadow=0;comic=0;labelBackgroundColor=none;strokeWidth=1;fontFamily=Verdana;fontSize=12;align=center;arcSize=50;" vertex="1" parent="1">
          <mxGeometry x="327" y="25" width="103" height="30" as="geometry" />
        </mxCell>
        <mxCell id="XzJ-Qq1-SAinPGlyP32a-106" value="" style="edgeStyle=orthogonalEdgeStyle;rounded=0;orthogonalLoop=1;jettySize=auto;html=1;" edge="1" parent="1" source="XzJ-Qq1-SAinPGlyP32a-107">
          <mxGeometry relative="1" as="geometry">
            <mxPoint x="120" y="215" as="targetPoint" />
          </mxGeometry>
        </mxCell>
        <mxCell id="XzJ-Qq1-SAinPGlyP32a-107" value="" style="ellipse;whiteSpace=wrap;html=1;rounded=0;shadow=0;comic=0;labelBackgroundColor=none;strokeWidth=1;fillColor=#000000;fontFamily=Verdana;fontSize=12;align=center;" vertex="1" parent="1">
          <mxGeometry x="40" y="195" width="40" height="40" as="geometry" />
        </mxCell>
        <mxCell id="XzJ-Qq1-SAinPGlyP32a-108" value="Wybor Napoju" style="rounded=1;whiteSpace=wrap;html=1;shadow=0;comic=0;labelBackgroundColor=none;strokeWidth=1;fontFamily=Verdana;fontSize=12;align=center;arcSize=50;" vertex="1" parent="1">
          <mxGeometry x="120" y="200" width="100" height="30" as="geometry" />
        </mxCell>
        <mxCell id="XzJ-Qq1-SAinPGlyP32a-109" style="edgeStyle=orthogonalEdgeStyle;rounded=0;orthogonalLoop=1;jettySize=auto;html=1;exitX=0.25;exitY=0;exitDx=0;exitDy=0;entryX=0;entryY=0.5;entryDx=0;entryDy=0;" edge="1" parent="1" source="XzJ-Qq1-SAinPGlyP32a-111" target="XzJ-Qq1-SAinPGlyP32a-114">
          <mxGeometry relative="1" as="geometry" />
        </mxCell>
        <mxCell id="XzJ-Qq1-SAinPGlyP32a-110" style="edgeStyle=orthogonalEdgeStyle;rounded=0;orthogonalLoop=1;jettySize=auto;html=1;exitX=0.75;exitY=0;exitDx=0;exitDy=0;entryX=0;entryY=0.5;entryDx=0;entryDy=0;" edge="1" parent="1" source="XzJ-Qq1-SAinPGlyP32a-111" target="XzJ-Qq1-SAinPGlyP32a-113">
          <mxGeometry relative="1" as="geometry" />
        </mxCell>
        <mxCell id="XzJ-Qq1-SAinPGlyP32a-111" value="" style="whiteSpace=wrap;html=1;rounded=0;shadow=0;comic=0;labelBackgroundColor=none;strokeWidth=1;fillColor=#000000;fontFamily=Verdana;fontSize=12;align=center;rotation=90;" vertex="1" parent="1">
          <mxGeometry x="230" y="210" width="77" height="10" as="geometry" />
        </mxCell>
        <mxCell id="XzJ-Qq1-SAinPGlyP32a-112" value="" style="endArrow=classic;html=1;rounded=0;entryX=0.5;entryY=1;entryDx=0;entryDy=0;" edge="1" parent="1" target="XzJ-Qq1-SAinPGlyP32a-111">
          <mxGeometry width="50" height="50" relative="1" as="geometry">
            <mxPoint x="220" y="215.25" as="sourcePoint" />
            <mxPoint x="650" y="110.25" as="targetPoint" />
          </mxGeometry>
        </mxCell>
        <mxCell id="XzJ-Qq1-SAinPGlyP32a-113" value="Odwołanie" style="rounded=1;whiteSpace=wrap;html=1;shadow=0;comic=0;labelBackgroundColor=none;strokeWidth=1;fontFamily=Verdana;fontSize=12;align=center;arcSize=50;" vertex="1" parent="1">
          <mxGeometry x="327" y="220" width="103" height="30" as="geometry" />
        </mxCell>
        <mxCell id="XzJ-Qq1-SAinPGlyP32a-114" value="&lt;div&gt;Zapłacić&lt;/div&gt;" style="rounded=1;whiteSpace=wrap;html=1;shadow=0;comic=0;labelBackgroundColor=none;strokeWidth=1;fontFamily=Verdana;fontSize=12;align=center;arcSize=50;" vertex="1" parent="1">
          <mxGeometry x="327" y="180" width="103" height="30" as="geometry" />
        </mxCell>
        <mxCell id="XzJ-Qq1-SAinPGlyP32a-115" value="" style="edgeStyle=orthogonalEdgeStyle;rounded=0;orthogonalLoop=1;jettySize=auto;html=1;" edge="1" parent="1" source="XzJ-Qq1-SAinPGlyP32a-116">
          <mxGeometry relative="1" as="geometry">
            <mxPoint x="120" y="365" as="targetPoint" />
          </mxGeometry>
        </mxCell>
        <mxCell id="XzJ-Qq1-SAinPGlyP32a-116" value="" style="ellipse;whiteSpace=wrap;html=1;rounded=0;shadow=0;comic=0;labelBackgroundColor=none;strokeWidth=1;fillColor=#000000;fontFamily=Verdana;fontSize=12;align=center;" vertex="1" parent="1">
          <mxGeometry x="40" y="345" width="40" height="40" as="geometry" />
        </mxCell>
        <mxCell id="XzJ-Qq1-SAinPGlyP32a-117" value="Atywny" style="rounded=1;whiteSpace=wrap;html=1;shadow=0;comic=0;labelBackgroundColor=none;strokeWidth=1;fontFamily=Verdana;fontSize=12;align=center;arcSize=50;" vertex="1" parent="1">
          <mxGeometry x="120" y="350" width="100" height="30" as="geometry" />
        </mxCell>
        <mxCell id="XzJ-Qq1-SAinPGlyP32a-118" style="edgeStyle=orthogonalEdgeStyle;rounded=0;orthogonalLoop=1;jettySize=auto;html=1;exitX=0.25;exitY=0;exitDx=0;exitDy=0;entryX=0;entryY=0.5;entryDx=0;entryDy=0;" edge="1" parent="1" source="XzJ-Qq1-SAinPGlyP32a-120" target="XzJ-Qq1-SAinPGlyP32a-123">
          <mxGeometry relative="1" as="geometry" />
        </mxCell>
        <mxCell id="XzJ-Qq1-SAinPGlyP32a-119" style="edgeStyle=orthogonalEdgeStyle;rounded=0;orthogonalLoop=1;jettySize=auto;html=1;exitX=0.75;exitY=0;exitDx=0;exitDy=0;entryX=0;entryY=0.5;entryDx=0;entryDy=0;" edge="1" parent="1" source="XzJ-Qq1-SAinPGlyP32a-120" target="XzJ-Qq1-SAinPGlyP32a-122">
          <mxGeometry relative="1" as="geometry" />
        </mxCell>
        <mxCell id="XzJ-Qq1-SAinPGlyP32a-120" value="" style="whiteSpace=wrap;html=1;rounded=0;shadow=0;comic=0;labelBackgroundColor=none;strokeWidth=1;fillColor=#000000;fontFamily=Verdana;fontSize=12;align=center;rotation=90;" vertex="1" parent="1">
          <mxGeometry x="230" y="360" width="77" height="10" as="geometry" />
        </mxCell>
        <mxCell id="XzJ-Qq1-SAinPGlyP32a-121" value="" style="endArrow=classic;html=1;rounded=0;entryX=0.5;entryY=1;entryDx=0;entryDy=0;" edge="1" parent="1" target="XzJ-Qq1-SAinPGlyP32a-120">
          <mxGeometry width="50" height="50" relative="1" as="geometry">
            <mxPoint x="220" y="365.25" as="sourcePoint" />
            <mxPoint x="650" y="260.25" as="targetPoint" />
          </mxGeometry>
        </mxCell>
        <mxCell id="XzJ-Qq1-SAinPGlyP32a-122" value="Zablokowane" style="rounded=1;whiteSpace=wrap;html=1;shadow=0;comic=0;labelBackgroundColor=none;strokeWidth=1;fontFamily=Verdana;fontSize=12;align=center;arcSize=50;" vertex="1" parent="1">
          <mxGeometry x="327" y="370" width="103" height="30" as="geometry" />
        </mxCell>
        <mxCell id="XzJ-Qq1-SAinPGlyP32a-123" value="Zamkniete" style="rounded=1;whiteSpace=wrap;html=1;shadow=0;comic=0;labelBackgroundColor=none;strokeWidth=1;fontFamily=Verdana;fontSize=12;align=center;arcSize=50;" vertex="1" parent="1">
          <mxGeometry x="327" y="330" width="103" height="30" as="geometry" />
        </mxCell>
      </root>
    </mxGraphModel>
  </diagram>
</mxfile>
